<?xml version="1.0" standalone="no"?>
<!DOCTYPE svg PUBLIC "-//W3C//DTD SVG 20010904//EN"
 "http://www.w3.org/TR/2001/REC-SVG-20010904/DTD/svg10.dtd">
<svg version="1.0" xmlns="http://www.w3.org/2000/svg"
 width="17.000000pt" height="17.000000pt" viewBox="0 0 17.000000 17.000000"
 preserveAspectRatio="xMidYMid meet">

<g transform="translate(0.000000,17.000000) scale(0.100000,-0.100000)"
fill="#000000" stroke="none">
<path d="M41 85 c-19 -42 -32 -78 -28 -81 3 -3 10 4 17 15 16 30 94 30 110 0
7 -11 14 -18 17 -15 9 8 -60 155 -72 155 -5 0 -25 -33 -44 -74z m79 -17 c0 -5
-16 -8 -35 -8 -19 0 -35 2 -35 5 0 2 8 20 17 40 l17 36 18 -33 c9 -18 17 -36
18 -40z"/>
</g>
</svg>
