<svg xmlns="http://www.w3.org/2000/svg" xmlns:xlink="http://www.w3.org/1999/xlink" viewBox="0 0 640 640" width="640" height="640"><defs><path d="M145.14 119.94h1.35v4h1.35v4h1.36v4h1.35v4h1.35v4h1.35v4h1.36v4h1.35v4.01h1.35v4h1.36v4h1.35v4h1.35v4h1.35v4h1.36v4h1.35v4h1.35v4h1.36v4.01h1.35v4h1.35v5.33h1.35v4h1.36v4h1.35v4.01h1.35v4h1.36v4h1.35v4h1.35v4h1.35v4h1.36v4h1.35v4h1.35v4.01h1.36v4h1.35v4h1.35v4h1.35v4h1.36v4h1.35v4h1.35v4h1.35v4h1.36v4.01h1.35v4h1.35v5.33h1.36v4h1.35v4h1.35v4.01h1.35v4h1.36v4h1.35v4h1.35v4h1.36v4h1.35v4h1.35v4h1.35v4.01h1.36v4h1.35V336h16.23v-1.33h13.53v-1.34h13.53V332h13.53v-1.33h13.53v-1.34h13.53V328h13.52v-1.34l27.06-1.33V324h12.18v-1.34h13.52v-1.33l27.06-1.33v-1.34h12.18v-1.33h12.17v-1.34h12.18v-1.33h13.53v-1.33h12.17v-1.34h12.18v-1.33h12.17v-1.33h12.18v-1.34h12.17v-1.33h12.18v-1.34h12.17v-1.33l24.36-1.33v-1.34h9.47v-1.33h4.05v-1.33h2.71v-1.34h2.71v-1.33l5.41-1.34v-1.33h1.35v-1.33h2.71v-1.34h1.35v-1.33h1.35v-1.33h1.35v-1.34h1.36l1.35-2.67h1.35v-1.33l2.71-1.33v-2.67h1.35v-2.67h1.35v-2.67h1.36v-2.66h1.35v-4h1.35v-4.01h1.35v-5.33h1.36v-5.34h1.35v-4h1.35v-5.33h1.36v-4h1.35v-5.34h1.35v-5.33h1.35v-6.67h1.36v-5.34h1.35v-5.33h1.35v-5.34h1.36v-5.33h1.35v-5.34h1.35v-5.33h1.35v-5.34h1.36v-5.33h1.35v-5.34h1.35v-6.66h1.36v-5.34h1.35v-5.33h1.35v-5.34h1.35v-6.67h1.36v-5.33h1.35v-5.34h1.35v-5.33h1.36v-9.34H559.1v-1.33h-86.58v-1.34h-86.58v-1.33h-89.29v-1.33h-90.64v-1.34h-62.23v4h1.36v4.01z" id="l3mMUjvB2"/><path d="M174.54 565.57h1.48v2.83h1.47l1.47 5.66h1.48v1.42l2.94 1.41v2.84h1.48l1.47 2.83h2.95v1.41h1.47l1.47 2.83h2.95v1.42h2.95v1.41h2.94v1.42h5.9v1.41h19.15v-1.41h5.9v-1.42h2.94v-1.41l5.9-1.42v-1.41h1.47l1.47-2.83h2.95v-1.42l2.95-1.41v-2.84h1.47v-1.41l2.95-1.42v-2.83l2.94-1.41v-2.83h1.48v-4.25H260v-24.06h-1.47v-4.25h-1.48l-1.47-5.66-2.95-1.42v-2.83h-1.47v-1.41h-1.47v-1.42h-1.48v-1.42h-1.47v-1.41h-1.47l-1.48-2.83h-2.94l-1.48-2.83h-2.94v-1.42h-4.42v-1.41h-2.95v-1.42h-8.84v-1.41H209.9v1.41h-5.89v1.42h-4.42v1.41l-5.89 1.42v1.41h-1.48l-1.47 2.83h-2.95v1.42l-2.94 1.41v2.84h-1.48v1.41h-1.47v1.42l-2.95 1.41v2.83h-1.47v2.83h-1.47v2.84h-1.48v5.66h-1.47v19.81h1.47v4.25z" id="aOVn2ZbLh"/><path d="M457.35 562.25h1.35v4.1h1.35l1.35 5.46 2.69 1.37v2.73h1.35v1.36h1.35v1.37h1.35v1.37h1.35v1.36h1.35l1.35 2.73h2.69v1.37h1.35v1.36h2.7v1.37h4.05v1.36h5.39v1.37h16.19v-1.37h5.39v-1.36H514v-1.37l5.39-1.36v-1.37h1.35v-1.36h1.35v-1.37h1.35v-1.36h1.35v-1.37h1.35v-1.37h1.35v-1.36h1.35v-1.37l2.69-1.36v-2.73h1.35v-2.73h1.35v-2.73h1.35v-5.47h1.35v-19.11h-1.35v-2.73h-1.35v-4.1h-1.35v-2.73h-1.35v-1.37h-1.34v-2.73h-1.35v-1.36l-2.7-1.37v-2.73h-1.35v-1.37h-2.7v-1.36h-1.35v-1.37h-1.35l-1.34-2.73h-2.7v-1.36h-2.7v-1.37h-4.05v-1.36h-5.39V509h-10.79v1.37h-6.75v1.36h-5.39v1.37h-2.7l-1.35 2.73h-2.7v1.36h-1.34v1.37h-1.35v1.36h-1.35v1.37h-1.35v1.36h-1.35v1.37l-2.7 1.37v2.73h-1.35v1.36h-1.34v2.73h-1.35l-1.35 8.2h-1.35v9.55H456v2.74h1.35v9.55z" id="f2lcGwweyF"/><path d="M0 21.75C0 25.61 3.63 32 7.01 34.17c3.12 1.93 7.25 2.29 36.15 2.77 30.65.61 32.77.73 37.78 3.38 7.13 3.62 13.51 10.01 17.01 16.88 1.63 3.14 24.02 66.93 49.66 141.82 3.12 9.07 18.72 54.41 46.79 136.03-1.35 3.4-2.1 5.29-2.25 5.66-9.14 22.92-8.76 21.71-8.89 36.3 0 11.34.51 15.32 2.88 21.95 7.76 21.71 26.27 37.99 49.66 43.78 10.89 2.65 304.11 2.77 309.49.12 10.26-5.19 10.13-19.42-.25-25.21-2.13-1.08-36.65-1.56-154.12-2.05l-151.36-.6c-4.06-2.17-6.31-3.38-6.76-3.62-6.88-3.62-13.01-10.01-17.14-17.48-1.62-3.14-2.25-7-2.37-15.08 0-9.28.5-12.06 3.5-18.81 3.5-7.84 3.75-8.08 8.76-8.8 2.87-.37 73.05-7.48 155.99-15.8 82.94-8.32 153.87-15.68 157.62-16.4 15.01-2.78 30.65-10.37 41.78-20.26 8.13-7.24 16.52-20.14 20.77-32.08 4.63-12.9 39.03-154.96 38.28-157.98-.88-3.49-5.13-7.59-9.51-9.28-2-.72-92.82-2.41-245.44-4.46-133.35-1.81-242.56-3.5-242.93-3.86-.25-.24-3.38-9.17-7.01-19.78-9.25-26.89-12.63-33.28-23.14-43.53-9.63-9.41-21.89-16.04-34.15-18.45C74.06 8.6 58.29 8 41.53 8c-24.39 0-30.4.36-33.65 1.93C4 11.74 0 17.77 0 21.75zM606.46 126.9c.25.12-6.88 29.43-15.88 65.24-17.02 67.3-19.64 75.13-27.65 83.45-6.38 6.52-15.39 11.7-23.89 13.87-7.01 1.69-304.61 32.08-314.87 32.08h-3.88c-11.41-33.5-17.74-52.11-19.01-55.83-10.51-30.63-25.9-75.98-34.4-100.82-1.03-3.01-6.16-18.04-15.39-45.1 18.16.43 28.26.67 30.27.72 16.64.49 118.97 1.93 227.3 3.38 108.33 1.45 197.15 2.77 197.4 3.01z" id="a2FwjyqnRJ"/><path d="M146.52 534.41c-5.73 24.51 1.2 48.62 19.05 66.47 18.25 18.25 41.96 25.04 66.73 19.31 12.39-2.93 23.45-9.45 33.57-19.58 15.85-15.85 23.18-37.29 20.12-58.87-3.33-23.31-18.25-43.83-39.57-54.08-15.71-7.73-29.43-9.46-45.95-5.86-25.58 5.46-47.95 27.3-53.95 52.61zm107.9 17.18c0 7.86-.67 11.19-3.07 15.99-4.79 9.06-13.18 16.92-21.31 19.98-32.37 12.12-63.01-18.52-50.88-50.88 3.86-10.39 14.38-19.85 26.64-23.85 6.12-2 19.58-.4 27.17 3.33 13.99 6.8 21.31 19.18 21.45 35.43z" id="a1kC1Syic0"/><path d="M447.05 501.63c-14.39 14.39-20.65 29.3-20.65 49.42 0 20.24 6.53 36.23 20.92 50.48 27.7 27.71 71.66 27.71 99.36 0 14.39-14.25 20.92-29.97 20.92-49.68 0-21.05-6-35.57-20.65-50.22-10.79-10.79-21.71-16.78-35.96-19.85-11.33-2.4-17.32-2.4-28.64.14-13.59 2.93-24.64 9.05-35.3 19.71zm85.65 33.83c8.66 18.92.66 41.43-17.98 50.89-9.19 4.79-26.24 4.79-35.44 0-21.84-11.06-27.97-37.83-13.45-58.88 9.72-13.99 30.77-19.45 47.42-12.12 7.99 3.6 15.32 11.19 19.45 20.11z" id="aNWfKtwFv"/></defs><use xlink:href="#l3mMUjvB2"/><use xlink:href="#l3mMUjvB2" fill-opacity="0" stroke="#000" stroke-opacity="0"/><use xlink:href="#aOVn2ZbLh"/><use xlink:href="#aOVn2ZbLh" fill-opacity="0" stroke="#000" stroke-opacity="0"/><use xlink:href="#f2lcGwweyF"/><use xlink:href="#f2lcGwweyF" fill-opacity="0" stroke="#000" stroke-opacity="0"/><use xlink:href="#a2FwjyqnRJ"/><use xlink:href="#a2FwjyqnRJ" fill-opacity="0" stroke="#000" stroke-opacity="0"/><use xlink:href="#a1kC1Syic0"/><use xlink:href="#a1kC1Syic0" fill-opacity="0" stroke="#000" stroke-opacity="0"/><use xlink:href="#aNWfKtwFv"/><use xlink:href="#aNWfKtwFv" fill-opacity="0" stroke="#000" stroke-opacity="0"/></svg>