<svg width="15" height="15" viewBox="0 0 15 15" fill="none" xmlns="http://www.w3.org/2000/svg">
<g clip-path="url(#clip0)">
<path d="M0.264944 7.23219L3.72124 8.52219L5.05904 12.8245C5.14464 13.1001 5.48159 13.2019 5.70524 13.0191L7.63184 11.4485C7.83379 11.2839 8.12144 11.2757 8.33249 11.4289L11.8074 13.9518C12.0466 14.1257 12.3856 13.9946 12.4456 13.7055L14.9911 1.46094C15.0566 1.14514 14.7463 0.881694 14.4456 0.997994L0.260894 6.47004C-0.0891557 6.60504 -0.0861057 7.10064 0.264944 7.23219ZM4.84344 7.83549L11.5983 3.67514C11.7197 3.60059 11.8446 3.76474 11.7404 3.86144L6.16564 9.04344C5.96969 9.22584 5.84329 9.46994 5.80749 9.73489L5.61759 11.1422C5.59244 11.3301 5.32849 11.3487 5.27664 11.1669L4.54629 8.60064C4.46264 8.30794 4.58454 7.99529 4.84344 7.83549Z" fill="white"/>
</g>
<defs>
<clipPath id="clip0">
<rect width="15" height="15" fill="white"/>
</clipPath>
</defs>
</svg>
