<?xml version="1.0" encoding="utf-8"?><svg width="15" height="15" xmlns="http://www.w3.org/2000/svg" viewBox="0 0 15 15"><g clip-path="url(#nclip0)"><path d="M.265 7.232l3.456 1.29 1.338 4.303a.407.407 0 00.646.194l1.927-1.57a.575.575 0 01.7-.02l3.475 2.523c.24.174.579.043.639-.246L14.99 1.46a.407.407 0 00-.545-.463L.26 6.47a.408.408 0 00.004.762zm4.578.603l6.755-4.16c.122-.074.247.09.142.186L6.166 9.043a1.156 1.156 0 00-.359.692l-.19 1.407c-.025.188-.289.207-.34.025L4.547 8.6a.68.68 0 01.296-.766z"/></g><defs><clipPath id="nclip0"><path d="M0 0h15v15H0z"/></clipPath></defs></svg>