<?xml version="1.0" encoding="utf-8"?><svg width="15" height="15" xmlns="http://www.w3.org/2000/svg" viewBox="0 0 15 15"><g clip-path="url(#oclip0)"><path d="M14.866 10.854c-.04-.067-.29-.609-1.49-1.723-1.256-1.166-1.087-.977.426-2.993.922-1.229 1.29-1.979 1.175-2.3-.11-.305-.788-.224-.788-.224l-2.254.013s-.166-.023-.291.051c-.121.073-.199.242-.199.242s-.357.95-.833 1.76c-1.005 1.705-1.407 1.795-1.57 1.689-.382-.247-.287-.992-.287-1.521 0-1.653.25-2.342-.488-2.52-.246-.06-.426-.099-1.053-.105-.805-.009-1.486.002-1.872.19-.256.127-.454.407-.333.423.149.02.486.09.665.335.232.314.224 1.02.224 1.02s.133 1.946-.31 2.188c-.306.166-.723-.173-1.618-1.72-.459-.793-.805-1.67-.805-1.67s-.067-.163-.186-.25c-.145-.106-.347-.14-.347-.14l-2.143.014s-.322.01-.44.149c-.105.124-.008.381-.008.381s1.678 3.926 3.577 5.905c1.743 1.814 3.722 1.695 3.722 1.695h.896s.27-.03.409-.179c.127-.137.122-.394.122-.394s-.017-1.202.541-1.38c.55-.174 1.258 1.163 2.007 1.678.566.389.996.303.996.303l2.004-.028s1.048-.064.551-.889z"/></g><defs><clipPath id="oclip0"><path d="M0 0h15v15H0z"/></clipPath></defs></svg>