<?xml version="1.0" encoding="utf-8"?><svg width="20" height="20" xmlns="http://www.w3.org/2000/svg" viewBox="0 0 20 20"><path d="M6.38 15.289a2.088 2.088 0 100 4.176 2.088 2.088 0 000-4.176zm0 3.248a1.16 1.16 0 110-2.32 1.16 1.16 0 010 2.32zM15.196 15.289a2.088 2.088 0 100 4.176 2.088 2.088 0 000-4.176zm0 3.248a1.16 1.16 0 110-2.32 1.16 1.16 0 010 2.32zM19.905 3.109a.58.58 0 00-.37-.186L4.43 2.714l-.417-1.276A2.134 2.134 0 002.018 0H.464a.464.464 0 100 .928h1.554c.505.011.95.335 1.114.812l2.946 8.886-.232.533a2.227 2.227 0 00.21 2.018c.385.59 1.035.954 1.74.975h9.024a.464.464 0 000-.928H7.795a1.183 1.183 0 01-.974-.557 1.276 1.276 0 01-.116-1.114l.185-.417 9.767-1.02a2.552 2.552 0 002.204-1.95l1.114-4.663a.394.394 0 00-.07-.394zm-1.948 4.849a1.577 1.577 0 01-1.416 1.23l-9.65.997-2.158-6.543 14.221.21-.997 4.106z"/></svg>