<?xml version="1.0" standalone="no"?><svg version="1.0" xmlns="http://www.w3.org/2000/svg" width="682.667" height="682.667" viewBox="0 0 512 512"><path d="M6.3 8.6C3.2 10.1 0 15.1 0 18.4c0 3.2 2.9 8.5 5.6 10.3 2.5 1.6 5.8 1.9 28.9 2.3 24.5.5 26.2.6 30.2 2.8 5.7 3 10.8 8.3 13.6 14 1.3 2.6 19.2 55.5 39.7 117.6l37.4 112.8-1.8 4.7c-7.3 19-7 18-7.1 30.1 0 9.4.4 12.7 2.3 18.2 6.2 18 21 31.5 39.7 36.3 8.7 2.2 243.1 2.3 247.4.1 8.2-4.3 8.1-16.1-.2-20.9-1.7-.9-29.3-1.3-123.2-1.7l-121-.5-5.4-3c-5.5-3-10.4-8.3-13.7-14.5-1.3-2.6-1.8-5.8-1.9-12.5 0-7.7.4-10 2.8-15.6 2.8-6.5 3-6.7 7-7.3 2.3-.3 58.4-6.2 124.7-13.1 66.3-6.9 123-13 126-13.6 12-2.3 24.5-8.6 33.4-16.8 6.5-6 13.2-16.7 16.6-26.6 3.7-10.7 31.2-128.5 30.6-131-.7-2.9-4.1-6.3-7.6-7.7-1.6-.6-74.2-2-196.2-3.7-106.6-1.5-193.9-2.9-194.2-3.2-.2-.2-2.7-7.6-5.6-16.4-7.4-22.3-10.1-27.6-18.5-36.1C81.8 15.6 72 10.1 62.2 8.1c-3-.6-15.6-1.1-29-1.1-19.5 0-24.3.3-26.9 1.6zM327 103.1c86.6 1.2 157.6 2.3 157.8 2.5.2.1-5.5 24.4-12.7 54.1-13.6 55.8-15.7 62.3-22.1 69.2-5.1 5.4-12.3 9.7-19.1 11.5-5.6 1.4-243.5 26.6-251.7 26.6h-3.1l-15.2-46.3c-8.4-25.4-20.7-63-27.5-83.6l-12.3-37.4 24.2.6c13.3.4 95.1 1.6 181.7 2.8zM152 399.6c-19.2 4.1-36 20.5-40.5 39.5-4.3 18.4.9 36.5 14.3 49.9 13.7 13.7 31.5 18.8 50.1 14.5 9.3-2.2 17.6-7.1 25.2-14.7 11.9-11.9 17.4-28 15.1-44.2-2.5-17.5-13.7-32.9-29.7-40.6-11.8-5.8-22.1-7.1-34.5-4.4zm24.4 25.8c10.5 5.1 16 14.4 16.1 26.6 0 5.9-.5 8.4-2.3 12-3.6 6.8-9.9 12.7-16 15-24.3 9.1-47.3-13.9-38.2-38.2 2.9-7.8 10.8-14.9 20-17.9 4.6-1.5 14.7-.3 20.4 2.5zM378 399.6c-10.2 2.2-18.5 6.8-26.5 14.8-10.8 10.8-15.5 22-15.5 37.1 0 15.2 4.9 27.2 15.7 37.9 20.8 20.8 53.8 20.8 74.6 0 10.8-10.7 15.7-22.5 15.7-37.3 0-15.8-4.5-26.7-15.5-37.7-8.1-8.1-16.3-12.6-27-14.9-8.5-1.8-13-1.8-21.5.1zm23.2 25.1c6 2.7 11.5 8.4 14.6 15.1 6.5 14.2.5 31.1-13.5 38.2-6.9 3.6-19.7 3.6-26.6 0-16.4-8.3-21-28.4-10.1-44.2 7.3-10.5 23.1-14.6 35.6-9.1z"/></svg>