<?xml version="1.0" encoding="utf-8"?><svg width="20" height="20" xmlns="http://www.w3.org/2000/svg" viewBox="0 0 20 20"><g clip-path="url(#gclip0)"><path d="M13.26 10.652H.653a.652.652 0 010-1.304h12.609a.652.652 0 010 1.304z"/><path d="M9.782 14.13a.653.653 0 01-.46-1.114L12.338 10 9.32 6.982a.653.653 0 01.923-.923l3.478 3.478a.652.652 0 010 .923l-3.478 3.478a.647.647 0 01-.462.192z"/><path d="M10.434 19.565A9.516 9.516 0 011.533 13.5a.652.652 0 111.214-.476 8.22 8.22 0 007.688 5.238c4.555 0 8.261-3.706 8.261-8.261s-3.706-8.26-8.26-8.26a8.22 8.22 0 00-7.69 5.237.652.652 0 11-1.214-.476A9.516 9.516 0 0110.435.435C15.709.435 20 4.726 20 10c0 5.274-4.292 9.565-9.566 9.565z"/></g><defs><clipPath id="gclip0"><path d="M0 0h20v20H0z"/></clipPath></defs></svg>