<?xml version="1.0" standalone="no"?><svg version="1.0" xmlns="http://www.w3.org/2000/svg" width="682.667" height="682.667" viewBox="0 0 512 512"><path d="M250.5 11.6c-32 3.2-54.1 8.5-79.2 19-52.8 22.1-97.2 63.9-123 115.9-6.6 13.2-10.3 22.7-10.3 26.2.1 4.3 3.4 10.7 7 13.3 6.2 4.4 16.1 3.6 21.3-1.8 1.4-1.5 4.8-7.8 7.6-14 28.9-65 86.3-109.6 157.6-122.7 11.9-2.2 46.1-3.1 59.1-1.6 15.3 1.8 28.7 4.8 43.4 9.7 68 22.6 120.4 79.2 138 148.7 8.2 32.4 8.5 67.5.8 100.2-6.9 29.6-22 60.3-41.5 84.5-7.3 9-23.3 24.9-32.3 32.1-29.9 24-68.2 40.1-107 44.9-10.9 1.3-39.1 1.3-50 0-32.6-4.1-65.6-16.2-92.1-33.9-33.3-22.3-59.6-53.5-76-90.3C67.1 326.6 63.5 323 55 323c-11.3 0-19 10-16.1 20.8 1.6 6.1 11.4 26.6 18.6 38.7 13.1 22.3 37.6 50.3 57.5 65.7 18.4 14.2 38.8 26.1 58.5 34.2 92.1 37.5 197.2 16.4 266.8-53.6 37.7-38 61.1-84.8 69.4-138.8 2.4-16 2.4-52 0-68-9.7-63.3-41.1-118.2-89.9-157.1-35-27.9-74.3-44.9-119.3-51.5-9.8-1.4-42.1-2.6-50-1.8z"/><path d="M243.2 152.1c-2.3 1.2-5.2 3.5-6.4 5.2-2.9 4.1-3.6 12.3-1.3 16.8.9 1.9 15.5 17.2 32.3 34.1l30.7 30.8H157.1c-105 0-142.4.3-145.3 1.2C4 242.5-1.1 251.3.4 259.6c.9 4.7 6.6 10.8 11.4 12.2 2.9.9 40.3 1.2 145.3 1.2h141.4l-30.7 30.7c-16.8 17-31.3 32.2-32.2 34-6.3 12.7 5.6 27 19.6 23.3 3.8-1 9.5-6.3 51-47.8 25.7-25.6 47.5-48.1 48.3-49.8 1.9-4.1 1.9-10.7 0-14.8-.8-1.7-22.6-24.2-48.3-49.8-39.7-39.6-47.3-46.8-50.7-47.7-5.6-1.5-7.4-1.4-12.3 1z"/></svg>